<svg width="180" height="180" viewBox="0 0 180 180" fill="none" xmlns="http://www.w3.org/2000/svg">
<g clip-path="url(#clip0_767_680)">
<rect width="180" height="180" rx="90" fill="#EEEEEE"/>
<path d="M90 113C108.417 113 123.333 98.0835 123.333 79.6668C123.333 61.2502 108.417 46.3335 90 46.3335C71.5833 46.3335 56.6667 61.2502 56.6667 79.6668C56.6667 98.0835 71.5833 113 90 113ZM90 129.667C67.75 129.667 23.3333 140.834 23.3333 163V171.334C23.3333 175.917 27.0833 179.667 31.6667 179.667H148.333C152.917 179.667 156.667 175.917 156.667 171.334V163C156.667 140.834 112.25 129.667 90 129.667Z" fill="#8F8F8F"/>
</g>
<defs>
<clipPath id="clip0_767_680">
<rect width="180" height="180" rx="90" fill="white"/>
</clipPath>
</defs>
</svg>
